<svg width="160" height="34" viewBox="0 0 160 34" fill="none" xmlns="http://www.w3.org/2000/svg">
<path opacity="0.4" d="M16 32C24.8366 32 32 24.8366 32 16C32 7.16344 24.8366 0 16 0C7.16344 0 0 7.16344 0 16C0 24.8366 7.16344 32 16 32Z" stroke="white" stroke-width="1.2"/>
<path opacity="0.6" d="M16 26C21.5228 26 26 21.5228 26 16C26 10.4772 21.5228 6 16 6C10.4772 6 6 10.4772 6 16C6 21.5228 10.4772 26 16 26Z" stroke="white"/>
<path d="M16 19.2C17.7673 19.2 19.2 17.7673 19.2 16C19.2 14.2327 17.7673 12.8 16 12.8C14.2327 12.8 12.8 14.2327 12.8 16C12.8 17.7673 14.2327 19.2 16 19.2Z" fill="white"/>
<path d="M16 2C17.1046 2 18 1.10457 18 0C18 -1.10457 17.1046 -2 16 -2C14.8954 -2 14 -1.10457 14 0C14 1.10457 14.8954 2 16 2Z" fill="white"/>
<path opacity="0.3" d="M16 16V0" stroke="white" stroke-width="0.6" stroke-dasharray="1.6 1.6"/>
<text x="44" y="24" font-family="system-ui, -apple-system, sans-serif" font-size="22" font-weight="700" fill="white">NotRavn</text>
</svg>
